# xmcd
#
# Track frame offsets:
#	182
#	14040
#	28747
#	40125
#	51997
#	62512
#	75765
#	87862
#	101735
#	116217
#	130137
#	146817
#
# Disc length: 2207 seconds
#
# Revision: 0
# Processed by: cddbd v1.5.2PL0 Copyright (c) Steve Scherf et al.
# Submitted via: EasyCDDAExtractor 16.0.6.1
#
DISCID=a1089d0c
DTITLE=Μιχαλόπουλος Πάνος - Χρυσός δίσκος-Μιχαλόπουλος Πάνος
DYEAR=1978
DGENRE=Ρεμπέτικη
TTITLE0=Βαδίζω και παραμιλώ [Γιάννη Παπαϊωάννου]
TTITLE1=Δεν ξανακάνω φυλακή [Λ. Μπουρνέλη-Π. Μιχαλόπουλου]
TTITLE2=Διαβολάκος [Κούλη Σκερπέλη-Π. Μιχαλόπουλου]
TTITLE3=Απιστία [Κολοκοτρώνη-Καλιμνάκη]
TTITLE4=Η τρελλή [Λ. Μπουρνέλη-Π. Μιχαλόπουλου]
TTITLE5=Τα παιδιά της γειτονιάς σου [Λ. Μπουρνέλη-Π. Μιχαλόπουλου]
TTITLE6=Μέσ' της πόλης το χαμάμ [Π. Μιχαλόπουλου]
TTITLE7=Ο Σταύρος [Μάρκου Βαμβακάρη]
TTITLE8=Σε νόμιζα για φίλο μου [Π. Μιχαλόπουλου]
TTITLE9=Ο καψούρης [Γιάννη Παπαϊωάννου]
TTITLE10=Ποτέ σε φίλο να μην πης [Θ. Πολυκανδριώτη-Γ. Πετσόγλου]
TTITLE11=Το κλειδί της πόρτας [Π. Τσουχαδερού-Ι. Συμεωνίδη]
EXTD=
EXTT0=
EXTT1=
EXTT2=
EXTT3=
EXTT4=
EXTT5=
EXTT6=
EXTT7=
EXTT8=
EXTT9=
EXTT10=
EXTT11=
PLAYORDER=
